<svg xmlns="http://www.w3.org/2000/svg" viewBox="0 0 512 512" width="512" height="512" role="img" aria-label="Palimpsest">
  <defs>
    <linearGradient id="bg2" x1="0" y1="0" x2="0.9" y2="1">
      <stop offset="0" stop-color="#0e2035"/><stop offset="1" stop-color="#0a1521"/>
    </linearGradient>
    <linearGradient id="teal" x1="0" y1="0" x2="1" y2="1">
      <stop offset="0" stop-color="#a6efe9"/><stop offset="1" stop-color="#39aaa5"/>
    </linearGradient>
    <linearGradient id="spine" x1="0" y1="0" x2="0" y2="1">
      <stop offset="0" stop-color="#a6efe9"/><stop offset="1" stop-color="#3fb1ab"/>
    </linearGradient>
    <filter id="glow" x="-80%" y="-80%" width="260%" height="260%"><feGaussianBlur stdDeviation="11"/></filter>
  </defs>
  <rect x="0" y="0" width="512" height="512" rx="118" fill="url(#bg2)"/>
  <rect x="4" y="4" width="504" height="504" rx="114" fill="none" stroke="#ffffff" stroke-opacity="0.08" stroke-width="2"/>
  <rect x="140" y="150" width="15" height="214" rx="7.5" fill="url(#spine)"/>
  <g fill="#d6e5f2">
    <rect x="176" y="156" width="150" height="22" rx="11" opacity="0.55"/>
    <rect x="176" y="196" width="196" height="22" rx="11" opacity="0.55"/>
    <rect x="176" y="312" width="176" height="22" rx="11" opacity="0.5"/>
    <rect x="176" y="352" width="104" height="22" rx="11" opacity="0.32"/>
  </g>
  <rect x="160" y="256" width="204" height="46" rx="12" fill="url(#teal)" opacity="0.9" filter="url(#glow)"/>
  <rect x="164" y="258" width="196" height="44" rx="10" fill="url(#teal)" opacity="0.35"/>
  <rect x="176" y="240" width="204" height="46" rx="9" fill="#05090f"/>
  <rect x="176" y="240" width="204" height="46" rx="9" fill="none" stroke="#ffffff" stroke-opacity="0.06" stroke-width="1.5"/>
</svg>
