<svg xmlns="http://www.w3.org/2000/svg" viewBox="0 0 512 512" width="512" height="512" role="img" aria-label="Palimpsest">
  <defs>
    <radialGradient id="bg" cx="0.5" cy="0.42" r="0.75">
      <stop offset="0" stop-color="#0b0d11"/><stop offset="1" stop-color="#050506"/>
    </radialGradient>
    <linearGradient id="cyan" x1="0" y1="0" x2="1" y2="1">
      <stop offset="0" stop-color="#5cf7ea"/><stop offset="1" stop-color="#20d6c6"/>
    </linearGradient>
    <linearGradient id="spine" x1="0" y1="0" x2="0" y2="1">
      <stop offset="0" stop-color="#63f8ec"/><stop offset="1" stop-color="#19c9ba"/>
    </linearGradient>
    <filter id="bloom" x="-120%" y="-120%" width="340%" height="340%"><feGaussianBlur stdDeviation="16"/></filter>
    <filter id="soft" x="-60%" y="-60%" width="220%" height="220%"><feGaussianBlur stdDeviation="4"/></filter>
  </defs>
  <rect x="0" y="0" width="512" height="512" rx="118" fill="url(#bg)"/>
  <rect x="3" y="3" width="506" height="506" rx="115" fill="none" stroke="#2fe6d6" stroke-opacity="0.14" stroke-width="2"/>
  <rect x="140" y="150" width="15" height="214" rx="7.5" fill="url(#spine)" filter="url(#soft)" opacity="0.9"/>
  <rect x="140" y="150" width="15" height="214" rx="7.5" fill="url(#spine)"/>
  <g fill="#7f93a1">
    <rect x="176" y="156" width="150" height="22" rx="11" opacity="0.42"/>
    <rect x="176" y="196" width="196" height="22" rx="11" opacity="0.42"/>
    <rect x="176" y="312" width="176" height="22" rx="11" opacity="0.38"/>
    <rect x="176" y="352" width="104" height="22" rx="11" opacity="0.24"/>
  </g>
  <rect x="158" y="252" width="212" height="54" rx="16" fill="#2fe6d6" opacity="0.95" filter="url(#bloom)"/>
  <rect x="164" y="258" width="196" height="44" rx="10" fill="url(#cyan)" opacity="0.5"/>
  <rect x="176" y="240" width="204" height="46" rx="9" fill="#141519"/>
  <rect x="176" y="240" width="204" height="46" rx="9" fill="none" stroke="#5cf7ea" stroke-opacity="0.22" stroke-width="1.5"/>
  <rect x="180" y="285" width="196" height="4" rx="2" fill="#6cfaee" opacity="0.95" filter="url(#soft)"/>
</svg>
